<svg width="25" height="25" viewBox="0 0 25 25" fill="none" xmlns="http://www.w3.org/2000/svg">
<path d="M25 10.4155C25 16.1766 19.4057 20.831 12.5 20.831C11.8164 20.831 11.1328 20.7822 10.4771 20.7009C8.64955 22.5887 6.47321 23.9232 4.05971 24.6392C3.55748 24.802 3.01339 24.9159 2.46931 24.9973C2.16239 25.0298 1.86942 24.7694 1.79967 24.3788V24.3626C1.72991 23.9557 1.96708 23.7116 2.17634 23.4187C3.05525 22.2632 4.05971 21.2867 4.7154 18.5689C1.84152 16.6648 0 13.7192 0 10.4155C0 4.67071 5.59431 0 12.5 0C19.4057 0 25 4.65444 25 10.4155Z" fill="white"/>
</svg>
