<svg width="20" height="20" viewBox="0 0 20 20" fill="none" xmlns="http://www.w3.org/2000/svg">
<path d="M7.27273 16.25V7.08333C7.27273 6.84896 7.07386 6.66667 6.81818 6.66667H5.90909C5.65341 6.66667 5.45455 6.84896 5.45455 7.08333V16.25C5.45455 16.4844 5.65341 16.6667 5.90909 16.6667H6.81818C7.07386 16.6667 7.27273 16.4844 7.27273 16.25ZM10.9091 16.25V7.08333C10.9091 6.84896 10.7102 6.66667 10.4545 6.66667H9.54545C9.28977 6.66667 9.09091 6.84896 9.09091 7.08333V16.25C9.09091 16.4844 9.28977 16.6667 9.54545 16.6667H10.4545C10.7102 16.6667 10.9091 16.4844 10.9091 16.25ZM14.5455 16.25V7.08333C14.5455 6.84896 14.3466 6.66667 14.0909 6.66667H13.1818C12.9261 6.66667 12.7273 6.84896 12.7273 7.08333V16.25C12.7273 16.4844 12.9261 16.6667 13.1818 16.6667H14.0909C14.3466 16.6667 14.5455 16.4844 14.5455 16.25ZM6.81818 3.33333H13.1818L12.5 1.8099C12.4574 1.75781 12.3295 1.67969 12.2585 1.66667H7.75568C7.67045 1.67969 7.55682 1.75781 7.5142 1.8099L6.81818 3.33333ZM20 3.75V4.58333C20 4.81771 19.8011 5 19.5455 5H18.1818V17.3437C18.1818 18.776 17.1591 20 15.9091 20H4.09091C2.84091 20 1.81818 18.8281 1.81818 17.3958V5H0.454545C0.198864 5 0 4.81771 0 4.58333V3.75C0 3.51562 0.198864 3.33333 0.454545 3.33333H4.84375L5.83807 1.15885C6.12216 0.520833 6.97443 0 7.72727 0H12.2727C13.0256 0 13.8778 0.520833 14.1619 1.15885L15.1563 3.33333H19.5455C19.8011 3.33333 20 3.51562 20 3.75Z" fill="#E76666"/>
</svg>
