<svg width="20" height="16" viewBox="0 0 20 16" fill="none" xmlns="http://www.w3.org/2000/svg">
<path d="M20 5.06696V13.9286C20 14.9107 19.1964 15.7143 18.2143 15.7143H1.78571C0.803571 15.7143 0 14.9107 0 13.9286V5.06696C0.334821 5.43527 0.714286 5.75893 1.12723 6.03795C2.97991 7.29911 4.85491 8.56027 6.67411 9.88839C7.61161 10.5804 8.77232 11.4286 9.98884 11.4286H10.0112C11.2277 11.4286 12.3884 10.5804 13.3259 9.88839C15.1451 8.57143 17.0201 7.29911 18.8839 6.03795C19.2857 5.75893 19.6652 5.43527 20 5.06696ZM20 1.78571C20 3.03571 19.0737 4.16295 18.0915 4.84375C16.3504 6.04911 14.5982 7.25446 12.8683 8.47098C12.1429 8.97321 10.9152 10 10.0112 10H9.98884C9.08482 10 7.85714 8.97321 7.1317 8.47098C5.40179 7.25446 3.64955 6.04911 1.91964 4.84375C1.12723 4.30804 0 3.04687 0 2.03125C0 0.9375 0.591518 0 1.78571 0H18.2143C19.1853 0 20 0.803571 20 1.78571Z" fill="black"/>
</svg>
