<svg width="25" height="21" viewBox="0 0 25 21" fill="none" xmlns="http://www.w3.org/2000/svg">
<path d="M5.64827 10.2696C5.64827 10.5424 5.76059 10.7991 5.95315 10.9917L14.6823 19.7208C14.8748 19.9134 15.1316 20.0257 15.4044 20.0257C15.966 20.0257 16.4313 19.5603 16.4313 18.9987V14.3774H23.62C24.1817 14.3774 24.647 13.9121 24.647 13.3505V7.18871C24.647 6.62709 24.1817 6.16175 23.62 6.16175H16.4313V1.54044C16.4313 0.97882 15.966 0.513479 15.4044 0.513479C15.1316 0.513479 14.8748 0.625803 14.6823 0.818357L5.95315 9.5475C5.76059 9.74006 5.64827 9.9968 5.64827 10.2696ZM0 4.62131V15.9179C0 18.4692 2.06996 20.5392 4.62131 20.5392H9.7561C10.0289 20.5392 10.2696 20.2985 10.2696 20.0257C10.2696 19.5764 10.4782 18.4853 9.7561 18.4853H4.62131C3.20924 18.4853 2.05392 17.3299 2.05392 15.9179V4.62131C2.05392 3.20924 3.20924 2.05392 4.62131 2.05392H9.24262C9.64378 2.05392 10.2696 2.13415 10.2696 1.54044C10.2696 1.09114 10.4782 0 9.7561 0H4.62131C2.06996 0 0 2.06996 0 4.62131Z" fill="#DC4343"/>
</svg>
