<svg width="20" height="25" viewBox="0 0 20 25" fill="none" xmlns="http://www.w3.org/2000/svg">
<path d="M5.55556 11.1111H14.4444V7.77778C14.4444 5.32986 12.4479 3.33333 10 3.33333C7.55208 3.33333 5.55556 5.32986 5.55556 7.77778V11.1111ZM20 12.7778V22.7778C20 23.6979 19.2535 24.4444 18.3333 24.4444H1.66667C0.746528 24.4444 0 23.6979 0 22.7778V12.7778C0 11.8576 0.746528 11.1111 1.66667 11.1111H2.22222V7.77778C2.22222 3.50694 5.72917 0 10 0C14.2708 0 17.7778 3.50694 17.7778 7.77778V11.1111H18.3333C19.2535 11.1111 20 11.8576 20 12.7778Z" fill="black"/>
</svg>
