<svg width="25" height="25" viewBox="0 0 25 25" fill="none" xmlns="http://www.w3.org/2000/svg">
<path d="M12.3222 0C19.1297 0 24.6444 5.51474 24.6444 12.3222C24.6444 19.0884 19.1572 24.6444 12.3222 24.6444C5.50099 24.6444 0 19.1022 0 12.3222C0 5.51474 5.51474 0 12.3222 0ZM20.835 18.5796C22.114 16.8193 22.8841 14.6601 22.8841 12.3222C22.8841 6.50492 18.1395 1.76032 12.3222 1.76032C6.50492 1.76032 1.76032 6.50492 1.76032 12.3222C1.76032 14.6601 2.53046 16.8193 3.80944 18.5796C4.30452 16.1179 5.50099 14.0825 8.01769 14.0825C9.13164 15.169 10.6444 15.8428 12.3222 15.8428C14 15.8428 15.5128 15.169 16.6267 14.0825C19.1434 14.0825 20.3399 16.1179 20.835 18.5796ZM17.6032 9.68174C17.6032 6.76622 15.2377 4.40079 12.3222 4.40079C9.40669 4.40079 7.04127 6.76622 7.04127 9.68174C7.04127 12.5973 9.40669 14.9627 12.3222 14.9627C15.2377 14.9627 17.6032 12.5973 17.6032 9.68174Z" fill="#F4F4F4"/>
</svg>
