<svg width="20" height="20" viewBox="0 0 20 20" fill="none" xmlns="http://www.w3.org/2000/svg">
<path d="M16.7188 7.89062C16.7188 7.66927 16.6406 7.44792 16.4844 7.29167L15.2995 6.11979C15.1432 5.96354 14.9349 5.8724 14.7135 5.8724C14.4922 5.8724 14.2839 5.96354 14.1276 6.11979L8.8151 11.4193L5.8724 8.47656C5.71615 8.32031 5.50781 8.22917 5.28646 8.22917C5.0651 8.22917 4.85677 8.32031 4.70052 8.47656L3.51562 9.64844C3.35938 9.80469 3.28125 10.026 3.28125 10.2474C3.28125 10.4688 3.35938 10.6771 3.51562 10.8333L8.22917 15.5469C8.38542 15.7031 8.60677 15.7943 8.8151 15.7943C9.03646 15.7943 9.25781 15.7031 9.41406 15.5469L16.4844 8.47656C16.6406 8.32031 16.7188 8.11198 16.7188 7.89062ZM20 10C20 15.5208 15.5208 20 10 20C4.47917 20 0 15.5208 0 10C0 4.47917 4.47917 0 10 0C15.5208 0 20 4.47917 20 10Z" fill="#49EA80"/>
</svg>
