<svg width="22" height="20" viewBox="0 0 22 20" fill="none" xmlns="http://www.w3.org/2000/svg">
<path d="M17.8366 7.89062C17.8366 7.66927 17.7532 7.44792 17.5865 7.29167L16.3224 6.11979C16.1557 5.96354 15.9335 5.8724 15.6973 5.8724C15.4611 5.8724 15.2389 5.96354 15.0722 6.11979L9.40449 11.4193L6.26503 8.47656C6.09833 8.32031 5.87607 8.22917 5.63991 8.22917C5.40376 8.22917 5.1815 8.32031 5.0148 8.47656L3.75068 9.64844C3.58398 9.80469 3.50064 10.026 3.50064 10.2474C3.50064 10.4688 3.58398 10.6771 3.75068 10.8333L8.77937 15.5469C8.94607 15.7031 9.18222 15.7943 9.40449 15.7943C9.64064 15.7943 9.87679 15.7031 10.0435 15.5469L17.5865 8.47656C17.7532 8.32031 17.8366 8.11198 17.8366 7.89062ZM21.3372 10C21.3372 15.5208 16.5586 20 10.6686 20C4.77865 20 0 15.5208 0 10C0 4.47917 4.77865 0 10.6686 0C16.5586 0 21.3372 4.47917 21.3372 10Z" fill="#3EDA73"/>
</svg>
